<?xml version="1.0" standalone="no"?>
<!DOCTYPE svg PUBLIC "-//W3C//DTD SVG 20010904//EN"
 "http://www.w3.org/TR/2001/REC-SVG-20010904/DTD/svg10.dtd">
<svg version="1.0" xmlns="http://www.w3.org/2000/svg"
 width="300.000000pt" height="300.000000pt" viewBox="0 0 300.000000 300.000000"
 preserveAspectRatio="xMidYMid meet">
<metadata>
Created by potrace 1.10, written by Peter Selinger 2001-2011
</metadata>
<g transform="translate(0.000000,300.000000) scale(0.100000,-0.100000)"
fill="#000000" stroke="none">
<path d="M1340 2059 c-121 -120 -160 -163 -151 -172 8 -8 23 1 59 36 41 41 72
59 72 42 0 -3 -26 -32 -57 -66 -68 -72 -78 -88 -65 -101 11 -11 20 -3 77 70
34 44 65 66 65 47 0 -3 -29 -41 -65 -84 -36 -43 -65 -82 -65 -85 0 -3 8 -6 18
-6 9 0 44 35 80 80 35 44 68 78 73 74 11 -6 10 -7 -49 -91 -39 -57 -46 -83
-22 -83 5 0 46 48 90 108 47 61 89 107 98 107 13 0 18 -12 22 -47 5 -42 36
-96 48 -83 3 3 6 75 7 161 2 153 2 157 26 175 26 20 57 18 139 -8 110 -36 206
-110 274 -211 26 -37 69 -92 97 -122 58 -63 58 -52 3 69 -98 214 -306 351
-534 351 l-78 0 -162 -161z m260 125 c0 -3 -11 -19 -25 -36 -14 -16 -25 -35
-26 -41 -2 -30 -6 -105 -8 -129 -1 -24 -4 -26 -33 -22 -27 5 -38 0 -62 -25
-17 -17 -36 -31 -44 -31 -24 0 -69 39 -76 65 -9 35 11 61 110 150 75 67 89 75
124 75 22 0 40 -3 40 -6z"/>
<path d="M1362 2186 c-230 -86 -392 -321 -392 -569 l0 -54 158 -161 c88 -89
164 -162 170 -162 24 0 11 27 -33 70 -43 42 -54 60 -37 60 4 0 40 -29 80 -65
66 -59 92 -71 92 -45 0 5 -28 33 -62 61 -35 29 -64 56 -66 60 -9 22 22 4 90
-51 40 -33 79 -60 86 -60 29 0 7 29 -68 88 -72 57 -94 82 -73 82 4 0 38 -21
75 -46 43 -30 73 -44 84 -40 23 9 11 21 -107 108 -74 55 -98 78 -97 93 3 16
12 21 49 23 31 2 53 10 65 23 24 27 8 39 -42 30 -22 -4 -91 -5 -153 -2 -96 5
-115 9 -127 25 -20 28 -17 71 10 147 41 117 115 209 230 285 59 39 156 124
141 123 -5 0 -38 -11 -73 -23z m-207 -586 c70 0 108 -11 86 -24 -19 -12 -12
-35 24 -75 34 -37 35 -39 19 -69 -8 -17 -28 -37 -44 -45 -25 -13 -32 -13 -57
3 -16 9 -64 56 -106 104 -63 71 -77 92 -77 119 0 48 8 50 49 17 32 -27 43 -30
106 -30z"/>
<path d="M1744 1995 c-4 -9 0 -21 9 -28 8 -7 38 -30 66 -52 28 -21 51 -43 51
-47 0 -19 -26 -4 -96 53 -64 52 -94 66 -94 41 0 -4 36 -36 80 -71 44 -35 80
-68 80 -73 0 -17 -22 -7 -83 37 -58 43 -90 53 -91 30 0 -5 40 -41 89 -78 136
-103 138 -106 125 -123 -7 -8 -30 -14 -55 -14 -29 0 -47 -6 -60 -20 -26 -29
-9 -39 47 -31 26 4 94 5 152 2 89 -5 108 -9 121 -26 36 -46 -16 -202 -103
-312 -23 -28 -72 -73 -109 -100 -37 -26 -81 -60 -98 -74 -16 -15 -41 -36 -55
-48 -76 -62 131 26 219 93 140 108 231 295 231 475 0 52 -3 57 -47 104 -154
159 -274 277 -283 277 -22 0 -8 -28 35 -70 25 -24 45 -48 45 -52 0 -19 -25 -4
-75 43 -78 74 -94 84 -101 64z m264 -183 c101 -102 123 -132 128 -168 6 -52
-4 -60 -38 -27 -26 25 -37 28 -106 31 -94 4 -110 8 -94 24 19 19 14 36 -24 78
l-36 40 21 34 c39 63 78 60 149 -12z"/>
<path d="M1740 1423 c-47 -62 -89 -108 -98 -108 -13 0 -18 12 -22 46 -6 47
-23 79 -44 79 -8 0 -11 -43 -11 -143 0 -169 0 -172 -32 -192 -32 -22 -99 -8
-203 42 -80 38 -183 132 -216 195 -17 33 -126 160 -132 154 -2 -2 9 -36 25
-75 59 -152 168 -271 308 -336 86 -40 153 -55 249 -55 l73 0 164 159 c132 129
162 162 151 173 -10 10 -23 2 -66 -41 -77 -76 -77 -48 -1 36 36 39 65 76 65
82 0 29 -24 14 -76 -46 -31 -38 -61 -69 -65 -71 -20 -8 -5 18 55 93 60 75 71
100 41 93 -7 -2 -40 -38 -74 -81 -34 -43 -66 -75 -71 -72 -6 3 13 40 41 81 45
68 54 94 29 94 -5 0 -46 -48 -90 -107z m29 -88 c16 -8 34 -28 41 -44 11 -27 9
-34 -10 -61 -12 -16 -57 -62 -101 -100 -73 -65 -83 -70 -125 -70 l-45 0 30 33
c30 31 36 53 31 120 -1 15 1 40 5 56 6 27 9 29 38 24 26 -4 37 1 61 26 34 35
37 36 75 16z"/>
</g>
</svg>
